<?xml version="1.0" encoding="UTF-8" standalone="no"?>
<svg
   viewBox="2 2 20 20"
   version="1.1"
   id="svg1"
   sodipodi:docname="batchgenie_icon_color.svg"
   inkscape:version="1.3.2 (091e20e, 2023-11-25, custom)"
   inkscape:export-filename="..\Batch-Import-PBR\icons\batchgenie_icon.png"
   inkscape:export-xdpi="307.20001"
   inkscape:export-ydpi="307.20001"
   xmlns:inkscape="http://www.inkscape.org/namespaces/inkscape"
   xmlns:sodipodi="http://sodipodi.sourceforge.net/DTD/sodipodi-0.dtd"
   xmlns="http://www.w3.org/2000/svg"
   xmlns:svg="http://www.w3.org/2000/svg">
  <defs
     id="defs1" />
  <sodipodi:namedview
     id="namedview1"
     pagecolor="#505050"
     bordercolor="#eeeeee"
     borderopacity="1"
     inkscape:showpageshadow="0"
     inkscape:pageopacity="0"
     inkscape:pagecheckerboard="0"
     inkscape:deskcolor="#505050"
     inkscape:zoom="40.65"
     inkscape:cx="10"
     inkscape:cy="10"
     inkscape:window-width="1920"
     inkscape:window-height="1009"
     inkscape:window-x="-8"
     inkscape:window-y="-8"
     inkscape:window-maximized="1"
     inkscape:current-layer="svg1" />
  <path
     d="M 5 20 h 11 v 2 H 5 m 6 -17 h -1 a 2 2 0 0 0 -2 2 h 5 a 2 2 0 0 0 -2 -2 m 5 3 h 6 a 2 2 0 0 1 -2 2 h -1 a 4 4 0 0 0 -4 4 v 1 a 4 4 0 0 1 -4 4 h -1 a 4 4 0 0 1 -4 -4 H 4 a 2 2 0 0 1 -2 -2 v -3 a 2 2 0 0 1 2 -2 m 2 2 H 4 v 3 h 2 m 13 -8 a 2 2 0 0 1 2 2 h 1 a 2.9 2.9 0 0 0 -3 -3 a 2 2 0 0 1 -2 -2 h -1 a 2.9 2.9 0 0 0 3 3"
     fill="#ffffff"
     id="path1"
     style="fill:#f1bd5b;fill-opacity:1" />
</svg>
