<svg
   inkscape:export-ydpi="96"
   inkscape:export-xdpi="96"
   inkscape:export-filename="blender_icons.png"
   style="display:inline;enable-background:new"
   inkscape:output_extension="org.inkscape.output.svg.inkscape"
   sodipodi:docname="blender_icons.svg"
   version="1.0"
   inkscape:version="1.2 (dc2aeda, 2022-05-15)"
   sodipodi:version="0.32"
   id="svg2"
   height="14.000073"
   width="12.007121"
   xmlns:inkscape="http://www.inkscape.org/namespaces/inkscape"
   xmlns:sodipodi="http://sodipodi.sourceforge.net/DTD/sodipodi-0.dtd"
   xmlns="http://www.w3.org/2000/svg"
   xmlns:svg="http://www.w3.org/2000/svg"
   xmlns:rdf="http://www.w3.org/1999/02/22-rdf-syntax-ns#"
   xmlns:cc="http://creativecommons.org/ns#"
   xmlns:dc="http://purl.org/dc/elements/1.1/">
  <metadata
     id="metadata34337">
    <rdf:RDF>
      <cc:Work
         rdf:about="">
        <dc:format>image/svg+xml</dc:format>
        <dc:type
           rdf:resource="http://purl.org/dc/dcmitype/StillImage" />
        <dc:title />
      </cc:Work>
    </rdf:RDF>
  </metadata>
  <sodipodi:namedview
     inkscape:pagecheckerboard="true"
     inkscape:document-rotation="0"
     pagecolor="#808080"
     bordercolor="#666666"
     borderopacity="1"
     objecttolerance="10"
     gridtolerance="10"
     guidetolerance="10"
     inkscape:pageopacity="0"
     inkscape:pageshadow="2"
     inkscape:window-width="1728"
     inkscape:window-height="1051"
     id="namedview34335"
     showgrid="false"
     inkscape:zoom="1.7115805"
     inkscape:cx="217.6351"
     inkscape:cy="369.54148"
     inkscape:window-x="767"
     inkscape:window-y="92"
     inkscape:window-maximized="0"
     inkscape:current-layer="layer4"
     inkscape:showpageshadow="2"
     inkscape:deskcolor="#808080" />
  <defs
     id="defs4" />
  <g
     inkscape:groupmode="layer"
     id="layer8"
     inkscape:label="icons"
     style="display:inline"
     transform="translate(-7,-578)">
    <g
       style="display:inline;enable-background:new"
       id="g13609"
       transform="translate(-187,-90)"
       inkscape:export-filename="blender_icons.png"
       inkscape:export-xdpi="96"
       inkscape:export-ydpi="96"
       inkscape:label="BA-1">
      <path
         style="stroke:none;stroke-width:1px;stroke-linecap:round;stroke-linejoin:round;stroke-opacity:1"
         d="M 9.5,578 C 7.96808,578 7,579.29203 7,580.5 v 9 c 0,1.20797 0.96808,2.5 2.5,2.5 h 9 c 0.67616,0.01 0.67616,-1.00956 0,-1 h -9 C 8.53192,591 8,590.17765 8,589.5 8,588.82235 8.53192,588 9.5,588 h 9 c 0.27613,-3e-5 0.49997,-0.22387 0.5,-0.5 v -9 c -3e-5,-0.27613 -0.22387,-0.49997 -0.5,-0.5 z m 4,1 c 1.37479,0 2.5,1.12521 2.5,2.5 0,1.18026 -0.86027,2.25 -2,2.44531 V 585 h -1 v -1.5 c 3e-5,-0.27613 0.22387,-0.49997 0.5,-0.5 0.83435,0 1.5,-0.66565 1.5,-1.5 0,-0.83435 -0.66565,-1.5 -1.5,-1.5 -0.83435,0 -1.5,0.66565 -1.5,1.5 v 0.5 h -1 v -0.5 c 0,-1.37479 1.12521,-2.5 2.5,-2.5 z m -0.5,7 h 1 v 1 h -1 z m -3.5,3 a 0.50005,0.50005 0 1 0 0,1 h 9 a 0.50005,0.50005 0 1 0 0,-1 z"
         transform="translate(187,90)"
         id="path13602"
         inkscape:connector-curvature="0" />
    </g>
  </g>
</svg>
